<!-- Save this as google-icon.svg -->
<svg xmlns="http://www.w3.org/2000/svg" viewBox="0 0 48 48" width="24" height="24">
  <path fill="#fbc02d" d="M43.6 20.5H42V20H24v8h11.3c-1.6 4.4-5.7 7.5-10.6 7.5-6.1 0-11-4.9-11-11s4.9-11 11-11c2.8 0 5.4 1.1 7.4 2.9l6-6C33.2 6.5 28.8 4.5 24 4.5c-10.7 0-19.5 8.7-19.5 19.5S13.3 43.5 24 43.5c10 0 18.5-7.3 18.5-18.5 0-1.5-.2-2.9-.4-4.5z"></path>
  <path fill="#e53935" d="M6.3 14.1l6.6 4.8C14.3 15.3 18.8 12 24 12c2.8 0 5.4 1.1 7.4 2.9l6-6C33.2 4.5 28.8 2.5 24 2.5c-7.2 0-13.5 3.5-17.7 8.9z"></path>
  <path fill="#4caf50" d="M24 44c4.6 0 8.8-1.5 12.1-4.1l-5.7-4.7C28.1 36.9 26.1 37.5 24 37.5c-4.8 0-9-3.1-10.6-7.5l-6.6 5.1C8.8 40.5 15.9 44 24 44z"></path>
  <path fill="#1565c0" d="M43.6 20.5H42V20H24v8h11.3c-1 2.9-3.2 5.3-6 6.5l.1.1 5.7 4.7c-.4.3 6.6-4.9 6.6-13.8 0-1.5-.2-2.9-.4-4.5z"></path>
</svg>
